<svg width="119" height="28" viewBox="0 0 119 28" fill="none" xmlns="http://www.w3.org/2000/svg">
<g filter="url(#filter0_d_1_6)">
<path d="M23.27 0L19.34 0.78L22.08 4.32L24.05 3.92L23.27 0ZM16.4 1.36L14.43 1.75L17.18 5.28L19.14 4.89L16.4 1.36ZM11.5 2.32L9.53001 2.73L12.28 6.26L14.24 5.87L11.5 2.32ZM6.59001 3.32L5.61001 3.51C4.53001 3.72 3.82001 4.78 4.04001 5.86L4.43001 7.82L9.33001 6.85L6.59001 3.32ZM22.43 9.82V17.82H6.43001V9.82H22.43ZM24.43 7.82H4.43001V17.82C4.43001 18.93 5.33001 19.82 6.43001 19.82H22.43C23.54 19.82 24.43 18.93 24.43 17.82V7.82Z" fill="black"/>
<path d="M32.1035 15.9238C31.9004 16.0527 31.6738 16.1172 31.4238 16.1172C31.1777 16.1172 30.9492 16.0527 30.7383 15.9238C30.5234 16.0527 30.3262 16.1172 30.1465 16.1172C29.9668 16.1172 29.8223 16.1016 29.7129 16.0703C29.6035 16.043 29.5078 16.0039 29.4258 15.9531C29.2578 15.8516 29.1738 15.7246 29.1738 15.5723C29.1738 15.4941 29.1953 15.4258 29.2383 15.3672C29.3242 15.4336 29.4375 15.4668 29.5781 15.4668C29.7227 15.4668 29.8672 15.4297 30.0117 15.3555C30.1602 15.2812 30.2715 15.166 30.3457 15.0098V12.1562C30.3457 11.9766 30.3086 11.8438 30.2344 11.7578C30.1172 11.6133 29.916 11.4707 29.6309 11.3301C29.8965 11.209 30.0684 11.1016 30.1465 11.0078C30.2793 10.8555 30.3457 10.6836 30.3457 10.4922V7.77344C30.2168 7.72656 30.0625 7.70312 29.8828 7.70312C29.707 7.70312 29.5215 7.75 29.3262 7.84375C29.1309 7.9375 28.9551 8.07422 28.7988 8.25391C28.4512 8.66016 28.2773 9.19141 28.2773 9.84766C28.2773 10.2266 28.3398 10.5059 28.4648 10.6855C28.418 10.7832 28.3301 10.832 28.2012 10.832C28.0723 10.832 27.957 10.8027 27.8555 10.7441C27.7539 10.6855 27.666 10.6055 27.5918 10.5039C27.4395 10.3008 27.3633 10.082 27.3633 9.84766C27.3633 9.61328 27.4062 9.41406 27.4922 9.25C27.3477 9.07812 27.2754 8.88477 27.2754 8.66992C27.2754 8.45117 27.334 8.27148 27.4512 8.13086C27.2871 7.95508 27.2051 7.71875 27.2051 7.42188C27.2051 7.07812 27.3633 6.84766 27.6797 6.73047C27.7734 6.69531 27.8555 6.67773 27.9258 6.67773C28.0586 6.67773 28.1582 6.70703 28.2246 6.76562C28.1973 6.85938 28.1836 6.92578 28.1836 6.96484C28.1836 7.12109 28.2383 7.19922 28.3477 7.19922C28.4062 7.19922 28.4668 7.19141 28.5293 7.17578L28.793 7.09961C29.25 6.97852 29.6309 6.91797 29.9355 6.91797C30.2402 6.91797 30.5078 6.98438 30.7383 7.11719C30.9375 6.98438 31.1641 6.91797 31.418 6.91797C31.6719 6.91797 31.9023 6.98438 32.1094 7.11719C32.332 6.98438 32.5625 6.91797 32.8008 6.91797C33.1797 6.91797 33.5117 6.95703 33.7969 7.03516L34.3184 7.17578C34.3809 7.19141 34.4414 7.19922 34.5 7.19922C34.6094 7.19922 34.6641 7.12109 34.6641 6.96484C34.6641 6.92578 34.6504 6.85938 34.623 6.76562C34.6895 6.70703 34.7734 6.67773 34.875 6.67773C34.9766 6.67773 35.0742 6.69531 35.168 6.73047C35.2617 6.76562 35.3438 6.81641 35.4141 6.88281C35.5664 7.01953 35.6426 7.2168 35.6426 7.47461C35.6426 7.72852 35.5605 7.94727 35.3965 8.13086C35.5137 8.27148 35.5723 8.44922 35.5723 8.66406C35.5723 8.87891 35.498 9.07422 35.3496 9.25C35.4395 9.41016 35.4844 9.57031 35.4844 9.73047C35.4844 9.89062 35.4648 10.0352 35.4258 10.1641C35.3867 10.293 35.3301 10.4062 35.2559 10.5039C35.0957 10.7227 34.8945 10.832 34.6523 10.832C34.5195 10.832 34.4297 10.7832 34.3828 10.6855C34.5078 10.5059 34.5703 10.2363 34.5703 9.87695C34.5703 9.51367 34.5215 9.19922 34.4238 8.93359C34.3301 8.66406 34.2051 8.4375 34.0488 8.25391C33.7324 7.88672 33.3594 7.70312 32.9297 7.70312C32.7656 7.70312 32.623 7.72656 32.502 7.77344V10.4922C32.502 10.6836 32.543 10.8262 32.625 10.9199C32.7539 11.0723 32.9512 11.209 33.2168 11.3301C32.9316 11.4707 32.75 11.5859 32.6719 11.6758C32.5586 11.8164 32.502 11.9766 32.502 12.1562V15.0098C32.5723 15.166 32.6797 15.2812 32.8242 15.3555C32.9727 15.4297 33.1191 15.4668 33.2637 15.4668C33.4082 15.4668 33.5234 15.4336 33.6094 15.3672C33.6523 15.4258 33.6738 15.4941 33.6738 15.5723C33.6738 15.6465 33.6504 15.7168 33.6035 15.7832C33.5605 15.8496 33.5 15.9062 33.4219 15.9531C33.2422 16.0625 33.0312 16.1172 32.7891 16.1172C32.5508 16.1172 32.3223 16.0527 32.1035 15.9238ZM30.9082 14.4473C31.1035 14.373 31.2109 14.1172 31.2305 13.6797C31.2539 13.2422 31.2656 12.6367 31.2656 11.8633C31.2656 11.0898 31.2637 10.5762 31.2598 10.3223C31.2598 10.0645 31.2578 9.85742 31.2539 9.70117C31.2422 9.24023 31.1973 8.96289 31.1191 8.86914C31.0449 8.77148 30.9746 8.70703 30.9082 8.67578C30.9082 10.0352 30.8848 10.8086 30.8379 10.9961C30.7832 11.1523 30.6504 11.2637 30.4395 11.3301C30.6738 11.4121 30.8066 11.5117 30.8379 11.6289C30.8848 11.8164 30.9082 12.502 30.9082 13.6855V14.4473ZM37.5234 15.9297C37.3438 16.0547 37.1387 16.1172 36.9082 16.1172C36.6816 16.1172 36.5117 16.0664 36.3984 15.9648C36.2891 15.8633 36.2344 15.7656 36.2344 15.6719C36.2344 15.543 36.2617 15.4414 36.3164 15.3672C36.4023 15.4336 36.5117 15.4668 36.6445 15.4668C36.8711 15.4668 37.0332 15.3359 37.1309 15.0742V13.2695C37.1309 13.0742 37.0938 12.9414 37.0195 12.8711C36.9297 12.7773 36.7285 12.6543 36.416 12.502C36.6895 12.377 36.8633 12.2773 36.9375 12.2031C37.0664 12.0742 37.1309 11.916 37.1309 11.7285V8.41211C37.1309 7.9668 36.9492 7.74414 36.5859 7.74414C36.4531 7.74414 36.3438 7.77734 36.2578 7.84375C36.2031 7.76953 36.1758 7.69336 36.1758 7.61523C36.1758 7.5332 36.1953 7.45508 36.2344 7.38086C36.2773 7.30664 36.3398 7.23828 36.4219 7.17578C36.6094 7.04297 36.8438 6.97656 37.125 6.97656C37.4062 6.97656 37.625 6.99414 37.7812 7.0293C37.9961 6.75977 38.2383 6.625 38.5078 6.625C38.9102 6.625 39.1113 6.83594 39.1113 7.25781V10.1465C39.4902 9.43945 40.1094 9.08594 40.9688 9.08594C41.9531 9.08594 42.5801 9.52148 42.8496 10.3926C42.9355 10.6699 42.9785 10.9844 42.9785 11.3359V11.7285C42.9785 11.9121 43.0195 12.0449 43.1016 12.127C43.2227 12.248 43.4199 12.3711 43.6934 12.4961C43.3965 12.6406 43.2129 12.752 43.1426 12.8301C43.0332 12.9512 42.9785 13.0977 42.9785 13.2695V15.1035C43.0527 15.3457 43.2148 15.4668 43.4648 15.4668C43.5977 15.4668 43.707 15.4336 43.793 15.3672C43.8359 15.4258 43.8574 15.5117 43.8574 15.625C43.8574 15.7383 43.8047 15.8496 43.6992 15.959C43.5977 16.0645 43.4336 16.1172 43.207 16.1172C42.9805 16.1172 42.7715 16.0547 42.5801 15.9297C42.4043 16.0547 42.2051 16.1172 41.9824 16.1172C41.7637 16.1172 41.5723 16.0586 41.4082 15.9414C41.2559 16.0586 41.084 16.1172 40.8926 16.1172C40.7051 16.1172 40.5547 16.0684 40.4414 15.9707C40.3281 15.873 40.2715 15.7324 40.2715 15.5488C40.2715 15.4629 40.3008 15.3945 40.3594 15.3438C40.4492 15.4141 40.5391 15.4492 40.6289 15.4492C40.8008 15.4492 40.9238 15.3535 40.998 15.1621V11.6699C40.998 10.9082 40.8125 10.4688 40.4414 10.3516C40.3242 10.3125 40.1973 10.293 40.0605 10.293C39.6543 10.293 39.3711 10.5078 39.2109 10.9375C39.1602 11.0703 39.127 11.2148 39.1113 11.3711V15.1621C39.1855 15.3535 39.3086 15.4492 39.4805 15.4492C39.5703 15.4492 39.6602 15.4141 39.75 15.3438C39.8086 15.3945 39.8379 15.4883 39.8379 15.625C39.8379 15.7578 39.7812 15.873 39.668 15.9707C39.5547 16.0684 39.4023 16.1172 39.2109 16.1172C39.0195 16.1172 38.8477 16.0586 38.6953 15.9414C38.5352 16.0586 38.3457 16.1172 38.127 16.1172C37.9082 16.1172 37.707 16.0547 37.5234 15.9297ZM37.6816 14.4414C37.8574 14.3281 37.9609 14.0801 37.9922 13.6973C38.0039 13.5293 38.0117 13.3418 38.0156 13.1348C38.0195 12.9277 38.0215 12.7812 38.0215 12.6953C38.0254 12.6055 38.0273 12.5391 38.0273 12.4961V11.9688C38.0273 11.8242 38.0273 11.6602 38.0273 11.4766L38.0156 10.9023C38.0078 9.86719 37.9902 9.29102 37.9629 9.17383C37.9082 8.92773 37.8145 8.76172 37.6816 8.67578V10.6504C37.6816 11.459 37.6719 11.9102 37.6523 12.0039C37.6367 12.0938 37.623 12.1602 37.6113 12.2031C37.5762 12.3242 37.4434 12.4238 37.2129 12.502C37.4473 12.584 37.5801 12.6816 37.6113 12.7949C37.6582 12.9824 37.6816 13.4043 37.6816 14.0605V14.4414ZM41.5547 14.4473C41.75 14.373 41.8594 14.1172 41.8828 13.6797C41.9023 13.2422 41.9121 12.8418 41.9121 12.4785C41.9121 12.1113 41.9004 11.8125 41.877 11.582C41.8535 11.3516 41.8145 11.1699 41.7598 11.0371C41.709 10.9004 41.6426 10.7988 41.5605 10.7324C41.4785 10.6621 41.3789 10.5977 41.2617 10.5391C41.4102 10.8906 41.4961 11.2109 41.5195 11.5C41.543 11.7891 41.5547 12.0684 41.5547 12.3379V14.4473ZM49.6582 14.2305C49.7441 14.0664 49.9023 13.9844 50.1328 13.9844C50.2891 13.9844 50.4102 14.0488 50.4961 14.1777C50.5664 14.2793 50.6016 14.4043 50.6016 14.5527C50.6016 14.6973 50.5645 14.8438 50.4902 14.9922C50.416 15.1406 50.3145 15.2754 50.1855 15.3965C50.0566 15.5176 49.9082 15.625 49.7402 15.7188C49.5762 15.8125 49.4004 15.8906 49.2129 15.9531C48.8262 16.082 48.4238 16.1465 48.0059 16.1465C47.5879 16.1465 47.1953 16.0781 46.8281 15.9414C46.4648 15.8008 46.1523 15.6055 45.8906 15.3555C45.3789 14.8633 45.0664 14.1875 44.9531 13.3281C44.9258 13.1367 44.8809 13 44.8184 12.918C44.7012 12.7734 44.5078 12.6348 44.2383 12.502C44.5781 12.3496 44.7949 12.1055 44.8887 11.7695C44.916 11.6758 44.9375 11.582 44.9531 11.4883C45.0508 10.8008 45.3984 10.2148 45.9961 9.73047C46.5742 9.26172 47.2207 9.02734 47.9355 9.02734C48.6777 9.02734 49.3203 9.28906 49.8633 9.8125C50.4258 10.3516 50.707 11.0137 50.707 11.7988C50.707 11.8262 50.7051 11.8535 50.7012 11.8809C50.7012 11.9082 50.7031 11.9336 50.707 11.957C50.7148 12.0078 50.7461 12.0371 50.8008 12.0449C50.8711 12.1348 50.9062 12.2305 50.9062 12.332C50.9062 12.5664 50.7812 12.7051 50.5312 12.748C50.4688 12.7598 50.3711 12.7754 50.2383 12.7949L46.9336 13.3223V13.8848C46.9336 14.3379 47.0703 14.6973 47.3438 14.9629C47.6016 15.2168 47.9277 15.3438 48.3223 15.3438C48.7402 15.3438 49.0762 15.2578 49.3301 15.0859C49.5684 14.9219 49.6875 14.707 49.6875 14.4414C49.6875 14.3789 49.6777 14.3086 49.6582 14.2305ZM48.6328 12.3379V10.6973C48.6328 10.4395 48.582 10.25 48.4805 10.1289C48.3008 9.92188 48.123 9.81836 47.9473 9.81836C47.7715 9.81836 47.625 9.8457 47.5078 9.90039C47.3906 9.95117 47.2891 10.0332 47.2031 10.1465C47.0234 10.3848 46.9336 10.7559 46.9336 11.2598V12.6133L48.6328 12.3379ZM49.5 12.1914V12.0098C49.5 11.2832 49.4395 10.8438 49.3184 10.6914C49.2637 10.625 49.2031 10.5762 49.1367 10.5449V12.25L49.5 12.1914ZM45.9785 14.4473C46.0332 14.4043 46.0605 14.3555 46.0605 14.3008C46.0605 14.2148 46.043 14.1055 46.0078 13.9727C45.8477 13.3594 45.7676 12.9336 45.7676 12.6953C45.7676 12.4531 45.7754 12.2656 45.791 12.1328C45.8066 11.9961 45.8281 11.8594 45.8555 11.7227C45.9023 11.457 45.9531 11.2227 46.0078 11.0195C46.043 10.8867 46.0605 10.7969 46.0605 10.75C46.0605 10.6562 46.0332 10.5879 45.9785 10.5449C45.8145 10.7402 45.6895 11.002 45.6035 11.3301C45.5176 11.6582 45.4473 11.9473 45.3926 12.1973C45.373 12.3027 45.2578 12.4043 45.0469 12.502C45.2578 12.5996 45.373 12.6973 45.3926 12.7949C45.5371 13.4551 45.6562 13.875 45.75 14.0547C45.8438 14.2344 45.9199 14.3652 45.9785 14.4473ZM55.5762 15.959C55.4316 16.0645 55.2656 16.1172 55.0781 16.1172C54.8945 16.1172 54.7461 16.0703 54.6328 15.9766C54.5234 15.8789 54.4688 15.7676 54.4688 15.6426C54.4688 15.5176 54.4883 15.4258 54.5273 15.3672C54.6406 15.4336 54.8203 15.4668 55.0664 15.4668C55.1641 15.4668 55.2715 15.418 55.3887 15.3203C55.5059 15.2188 55.5996 15.0801 55.6699 14.9043V12.1562C55.6699 11.9727 55.6309 11.8359 55.5527 11.7461C55.4355 11.6055 55.2363 11.4668 54.9551 11.3301C55.2402 11.1934 55.4199 11.0801 55.4941 10.9902C55.6113 10.8418 55.6699 10.6758 55.6699 10.4922L55.6758 7.9375C55.582 7.69141 55.375 7.56836 55.0547 7.56836C54.8906 7.56836 54.7695 7.60156 54.6914 7.66797C54.6523 7.61719 54.6328 7.55078 54.6328 7.46875C54.6328 7.38672 54.6504 7.3125 54.6855 7.24609C54.7207 7.17969 54.7695 7.12109 54.832 7.07031C54.9648 6.96875 55.1426 6.91797 55.3652 6.91797C55.5879 6.91797 55.7715 6.98242 55.916 7.11133C56.0449 6.98242 56.1953 6.91797 56.3672 6.91797C56.5391 6.91797 56.6855 6.99023 56.8066 7.13477C56.959 6.99023 57.0938 6.91797 57.2109 6.91797C57.3281 6.91797 57.418 6.92773 57.4805 6.94727C57.543 6.9668 57.6055 7.00391 57.668 7.05859C57.793 7.15625 57.9238 7.35352 58.0605 7.65039L60.3047 12.3086L62.1562 7.74414L62.3203 7.36328C62.418 7.14844 62.5098 7.02148 62.5957 6.98242C62.6816 6.93945 62.7812 6.91797 62.8945 6.91797C63.0117 6.91797 63.1309 6.96094 63.252 7.04688C63.4004 6.96094 63.5938 6.91797 63.832 6.91797C64.0742 6.91797 64.2832 6.98242 64.459 7.11133C64.6152 6.98242 64.7773 6.91797 64.9453 6.91797C65.1172 6.91797 65.25 6.93164 65.3438 6.95898C65.4414 6.98633 65.5254 7.02344 65.5957 7.07031C65.7441 7.17578 65.8184 7.30664 65.8184 7.46289C65.8184 7.54102 65.7969 7.60938 65.7539 7.66797C65.668 7.60156 65.5586 7.56836 65.4258 7.56836C65.1289 7.56836 64.9277 7.70703 64.8223 7.98438V10.4922C64.8223 10.6836 64.8633 10.8262 64.9453 10.9199C65.0742 11.0723 65.2715 11.209 65.5371 11.3301C65.252 11.4707 65.0703 11.5859 64.9922 11.6758C64.8789 11.8164 64.8223 11.9766 64.8223 12.1562V15.0215C64.9551 15.3184 65.1953 15.4668 65.543 15.4668C65.6758 15.4668 65.7852 15.4336 65.8711 15.3672C65.9141 15.4258 65.9355 15.4941 65.9355 15.5723C65.9355 15.6465 65.9121 15.7168 65.8652 15.7832C65.8223 15.8496 65.7617 15.9062 65.6836 15.9531C65.5039 16.0625 65.2988 16.1172 65.0684 16.1172C64.8379 16.1172 64.623 16.0547 64.4238 15.9297C64.2402 16.0547 64.0312 16.1172 63.7969 16.1172C63.5469 16.1172 63.3262 16.0547 63.1348 15.9297C62.9355 16.0547 62.75 16.1172 62.5781 16.1172C62.4102 16.1172 62.2715 16.1016 62.1621 16.0703C62.0527 16.043 61.957 16.0039 61.875 15.9531C61.707 15.8516 61.623 15.7246 61.623 15.5723C61.623 15.4941 61.6445 15.4258 61.6875 15.3672C61.7734 15.4336 61.8828 15.4668 62.0156 15.4668C62.3633 15.4668 62.6035 15.3184 62.7363 15.0215V8.61719L60.4512 14.2773L60.1992 14.8516C60.0781 15.125 59.9922 15.2793 59.9414 15.3145C59.8945 15.3496 59.8555 15.3672 59.8242 15.3672C59.7266 15.3672 59.6582 15.3574 59.6191 15.3379L56.4902 9.16797V14.8984C56.5645 15.0781 56.666 15.2188 56.7949 15.3203C56.9238 15.418 57.0684 15.4668 57.2285 15.4668C57.3887 15.4668 57.5254 15.4336 57.6387 15.3672C57.6816 15.4375 57.7031 15.5352 57.7031 15.6602C57.7031 15.7812 57.6426 15.8887 57.5215 15.9824C57.4004 16.0723 57.2441 16.1172 57.0527 16.1172C56.8613 16.1172 56.6855 16.0684 56.5254 15.9707C56.3848 16.0684 56.2227 16.1172 56.0391 16.1172C55.8594 16.1172 55.7051 16.0645 55.5762 15.959ZM57.3164 8.66992C57.2773 8.72852 57.2578 8.8125 57.2578 8.92188C57.2578 9.23828 57.3906 9.6582 57.6562 10.1816L59.7891 14.4414C59.8164 14.4062 59.8301 14.332 59.8301 14.2188C59.8301 13.8789 59.668 13.3809 59.3438 12.7246L57.3164 8.66992ZM63.2988 14.4473C63.4941 14.373 63.6016 14.1172 63.6211 13.6797C63.6445 13.2422 63.6562 12.6367 63.6562 11.8633C63.6562 11.0898 63.6543 10.5762 63.6504 10.3223C63.6504 10.0645 63.6484 9.85742 63.6445 9.70117C63.6328 9.24023 63.5879 8.96289 63.5098 8.86914C63.4355 8.77148 63.3652 8.70703 63.2988 8.67578V14.4473ZM56.4082 14.5234C56.4082 14.5547 56.4102 14.5781 56.4141 14.5938L56.4082 14.5234ZM55.752 14.5234C55.748 14.5391 55.7461 14.5625 55.7461 14.5938L55.752 14.5234ZM68.2148 15.3438C67.9688 15.0938 67.7734 14.7969 67.6289 14.4531C67.4883 14.1094 67.4023 13.8145 67.3711 13.5684C67.3398 13.3223 67.3125 13.1641 67.2891 13.0938C67.2695 13.0234 67.2344 12.957 67.1836 12.8945C67.082 12.7656 66.8965 12.6348 66.627 12.502C66.9668 12.3496 67.1836 12.1055 67.2773 11.7695C67.3047 11.6758 67.3262 11.582 67.3418 11.4883C67.4434 10.7891 67.7812 10.2051 68.3555 9.73633C68.9297 9.26367 69.5996 9.02734 70.3652 9.02734C71.1621 9.02734 71.8477 9.26562 72.4219 9.74219C72.9805 10.207 73.3105 10.7891 73.4121 11.4883C73.4473 11.7344 73.5 11.9141 73.5703 12.0273C73.7031 12.2344 73.8887 12.3926 74.127 12.502C73.8613 12.6309 73.6895 12.7441 73.6113 12.8418C73.5059 12.9785 73.4395 13.1406 73.4121 13.3281C73.2871 14.25 72.9668 14.9512 72.4512 15.4316C71.9355 15.9082 71.248 16.1465 70.3887 16.1465C69.4668 16.1465 68.7422 15.8789 68.2148 15.3438ZM71.373 11.3184C71.373 10.3418 71.041 9.85352 70.377 9.85352C69.7129 9.85352 69.3809 10.3418 69.3809 11.3184V13.9141C69.3809 14.8516 69.7109 15.3203 70.3711 15.3203C71.0391 15.3203 71.373 14.8516 71.373 13.9141V11.3184ZM71.9355 14.4473C72.1309 14.373 72.2383 14.1172 72.2578 13.6797C72.2812 13.2422 72.293 12.918 72.293 12.707C72.293 12.4922 72.291 12.3145 72.2871 12.1738C72.2871 12.0293 72.2852 11.8809 72.2812 11.7285C72.2656 11.1582 72.2207 10.8262 72.1465 10.7324C72.0723 10.6387 72.002 10.5762 71.9355 10.5449V14.4473ZM68.4258 14.4473C68.4805 14.4043 68.5078 14.3555 68.5078 14.3008C68.5078 14.2148 68.4902 14.1055 68.4551 13.9727C68.2949 13.3594 68.2148 12.9336 68.2148 12.6953C68.2148 12.4531 68.2227 12.2656 68.2383 12.1328C68.2539 11.9961 68.2734 11.8594 68.2969 11.7227C68.3477 11.457 68.4004 11.2227 68.4551 11.0195C68.4902 10.8867 68.5078 10.7969 68.5078 10.75C68.5078 10.6562 68.4805 10.5879 68.4258 10.5449C68.2617 10.7402 68.1367 11.002 68.0508 11.3301C67.9648 11.6582 67.8945 11.9473 67.8398 12.1973C67.8203 12.3027 67.7051 12.4043 67.4941 12.502C67.7051 12.5996 67.8203 12.6973 67.8398 12.7949C67.9844 13.4551 68.1035 13.875 68.1973 14.0547C68.291 14.2344 68.3672 14.3652 68.4258 14.4473ZM81.709 9.95898C81.6152 9.9043 81.4746 9.87695 81.2871 9.87695C81.1035 9.87695 80.9492 9.90625 80.8242 9.96484C80.7031 10.0195 80.6074 10.1406 80.5371 10.3281L80.2383 11.1191C80.1133 11.4473 80.0508 11.6895 80.0508 11.8457C80.0508 12.002 80.0664 12.1133 80.0977 12.1797C80.1289 12.2422 80.166 12.2969 80.209 12.3438C80.291 12.4297 80.375 12.4824 80.4609 12.502C79.9688 12.5684 79.6484 12.7969 79.5 13.1875L78.5508 15.7246C78.4648 15.9434 78.3281 16.0918 78.1406 16.1699C78.0742 16.1973 78.002 16.2109 77.9238 16.2109C77.8496 16.2109 77.7656 16.1973 77.6719 16.1699L76.3887 13.2227C76.2168 12.8633 75.8691 12.623 75.3457 12.502C75.6543 12.3223 75.8047 12.1426 75.7969 11.9629C75.7969 11.8223 75.7344 11.5898 75.6094 11.2656L75.2812 10.4219C75.1875 10.1914 75.1074 10.0488 75.041 9.99414C74.9277 9.90039 74.793 9.85352 74.6367 9.85352C74.4805 9.85352 74.3594 9.88672 74.2734 9.95312C74.2305 9.91016 74.209 9.82617 74.209 9.70117C74.209 9.57617 74.2617 9.46289 74.3672 9.36133C74.4727 9.25586 74.6387 9.20312 74.8652 9.20312C75.0957 9.20312 75.3086 9.27344 75.5039 9.41406C75.6641 9.27344 75.8594 9.20312 76.0898 9.20312C76.3242 9.20312 76.5273 9.26758 76.6992 9.39648C76.8828 9.26758 77.082 9.20312 77.2969 9.20312C77.5156 9.20312 77.6875 9.25586 77.8125 9.36133C77.9375 9.46289 78 9.5918 78 9.74805C78 9.8418 77.9707 9.91797 77.9121 9.97656C77.8184 9.90625 77.7227 9.87109 77.625 9.87109C77.4141 9.87109 77.3086 9.9707 77.3086 10.1699C77.3086 10.2559 77.3242 10.3359 77.3555 10.4102L78.5508 13.5391L79.6465 10.3691C79.6816 10.0215 79.5332 9.84766 79.2012 9.84766C79.0449 9.84766 78.9023 9.88477 78.7734 9.95898C78.7305 9.88867 78.709 9.79492 78.709 9.67773C78.709 9.55664 78.7617 9.44727 78.8672 9.34961C78.9727 9.25195 79.1172 9.20312 79.3008 9.20312C79.4883 9.20312 79.6484 9.26562 79.7812 9.39062C79.9219 9.26562 80.084 9.20312 80.2676 9.20312C80.4512 9.20312 80.6113 9.26172 80.748 9.37891C80.8965 9.26172 81.0547 9.20312 81.2227 9.20312C81.3945 9.20312 81.5273 9.25 81.6211 9.34375C81.7188 9.4375 81.7676 9.54883 81.7676 9.67773C81.7676 9.80664 81.748 9.90039 81.709 9.95898ZM76.2246 10.5449C76.1621 10.5879 76.1309 10.6582 76.1309 10.7559C76.1309 10.8535 76.1328 10.9277 76.1367 10.9785C76.1445 11.0254 76.1562 11.082 76.1719 11.1484C76.2031 11.2773 76.2559 11.4297 76.3301 11.6055C76.4707 11.957 76.5293 12.1621 76.5059 12.2207C76.4863 12.2793 76.4648 12.3242 76.4414 12.3555C76.3945 12.4336 76.3379 12.4844 76.2715 12.5078C76.5449 12.5625 76.7148 12.6484 76.7812 12.7656C76.8594 12.9219 76.916 13.0391 76.9512 13.1172L77.2734 13.8379C77.3555 14.0176 77.4336 14.1562 77.5078 14.2539C77.5859 14.3516 77.6914 14.416 77.8242 14.4473L76.2246 10.5449ZM83.7598 8.24805C83.5605 8.24805 83.3672 8.19531 83.1797 8.08984C82.9961 7.98438 82.8555 7.84375 82.7578 7.66797C82.6523 7.48828 82.5117 7.35156 82.3359 7.25781C82.2812 7.23047 82.2188 7.20117 82.1484 7.16992L82.3477 7.04688C82.5352 6.92969 82.6738 6.78711 82.7637 6.61914C82.8535 6.45117 82.9883 6.32031 83.168 6.22656C83.3516 6.12891 83.5488 6.08008 83.7598 6.08008C84.1973 6.08008 84.5137 6.26367 84.709 6.63086C84.8418 6.87305 85.0469 7.05273 85.3242 7.16992C85.2656 7.20508 85.207 7.23633 85.1484 7.26367C85.0938 7.29102 85.041 7.32227 84.9902 7.35742C84.877 7.43555 84.7754 7.55078 84.6855 7.70312C84.5996 7.85547 84.4727 7.98438 84.3047 8.08984C84.1406 8.19531 83.959 8.24805 83.7598 8.24805ZM83.4492 7.5332C83.4258 7.49023 83.4062 7.44141 83.3906 7.38672C83.3789 7.32812 83.373 7.22656 83.373 7.08203C83.373 6.9375 83.4473 6.75391 83.5957 6.53125C83.4512 6.53125 83.3496 6.55859 83.291 6.61328C83.2324 6.66406 83.1875 6.70898 83.1562 6.74805C83.1289 6.7832 83.1035 6.82031 83.0801 6.85938C83.0605 6.89453 83.0352 6.93359 83.0039 6.97656C82.9297 7.08203 82.8691 7.14648 82.8223 7.16992C82.8848 7.20508 82.9414 7.26172 82.9922 7.33984C83.0469 7.41406 83.1094 7.49219 83.1797 7.57422C83.2852 7.70312 83.4238 7.76758 83.5957 7.76758C83.5723 7.72461 83.5469 7.68555 83.5195 7.65039C83.4961 7.61133 83.4727 7.57227 83.4492 7.5332ZM83.1738 15.9297C82.9941 16.0547 82.7891 16.1172 82.5586 16.1172C82.332 16.1172 82.1621 16.0664 82.0488 15.9648C81.9395 15.8633 81.8848 15.7656 81.8848 15.6719C81.8848 15.543 81.9121 15.4414 81.9668 15.3672C82.0527 15.4336 82.1797 15.4668 82.3477 15.4668C82.5156 15.4668 82.6602 15.3574 82.7812 15.1387V13.2695C82.7812 13.0977 82.7461 12.9727 82.6758 12.8945C82.5625 12.7773 82.3594 12.6465 82.0664 12.502C82.3398 12.377 82.5137 12.2773 82.5879 12.2031C82.7168 12.0742 82.7812 11.916 82.7812 11.7285V10.873C82.7812 10.541 82.668 10.3613 82.4414 10.334C82.375 10.3262 82.291 10.3223 82.1895 10.3223C82.0879 10.3223 81.9941 10.3555 81.9082 10.4219C81.8535 10.3477 81.8262 10.2715 81.8262 10.1934C81.8262 10.1113 81.8457 10.0215 81.8848 9.92383C81.9277 9.82227 81.9922 9.72656 82.0781 9.63672C82.2812 9.42578 82.5156 9.32031 82.7812 9.32031C83.0469 9.32031 83.2871 9.36719 83.502 9.46094C83.6934 9.21094 83.9121 9.08594 84.1582 9.08594C84.5605 9.08594 84.7617 9.29688 84.7617 9.71875V11.7285C84.7617 11.916 84.8027 12.0508 84.8848 12.1328C85.0059 12.2539 85.2031 12.377 85.4766 12.502C85.1836 12.6465 85 12.7559 84.9258 12.8301C84.8164 12.9512 84.7617 13.0977 84.7617 13.2695V15.1562C84.8906 15.3633 85.0371 15.4668 85.2012 15.4668C85.3652 15.4668 85.4902 15.4336 85.5762 15.3672C85.6309 15.4414 85.6582 15.5352 85.6582 15.6484C85.6582 15.7578 85.6016 15.8633 85.4883 15.9648C85.3789 16.0664 85.2129 16.1172 84.9902 16.1172C84.7676 16.1172 84.5605 16.0547 84.3691 15.9297C84.209 16.0547 84.0156 16.1172 83.7891 16.1172C83.5625 16.1172 83.3574 16.0547 83.1738 15.9297ZM83.6777 13.1523C83.6816 13.0195 83.6836 12.9082 83.6836 12.8184C83.6875 12.7285 83.6895 12.6562 83.6895 12.6016V12.4434C83.6895 12.3848 83.6875 12.3086 83.6836 12.2148C83.6836 12.1211 83.6816 12.0176 83.6777 11.9043C83.6777 11.791 83.6758 11.6797 83.6719 11.5703C83.6562 11.3008 83.6367 11.1152 83.6133 11.0137C83.5664 10.7871 83.4766 10.6309 83.3438 10.5449V10.9258C83.3438 11.5859 83.3281 11.9746 83.2969 12.0918C83.2695 12.2051 83.2227 12.291 83.1562 12.3496C83.0938 12.4043 83 12.4531 82.875 12.4961C83.1094 12.5781 83.2422 12.6777 83.2734 12.7949C83.3203 12.9824 83.3438 13.4062 83.3438 14.0664V14.4473C83.5234 14.3301 83.625 14.0898 83.6484 13.7266C83.668 13.4766 83.6777 13.2852 83.6777 13.1523ZM91.4121 14.2305C91.498 14.0664 91.6562 13.9844 91.8867 13.9844C92.043 13.9844 92.1641 14.0488 92.25 14.1777C92.3203 14.2793 92.3555 14.4043 92.3555 14.5527C92.3555 14.6973 92.3184 14.8438 92.2441 14.9922C92.1699 15.1406 92.0684 15.2754 91.9395 15.3965C91.8105 15.5176 91.6621 15.625 91.4941 15.7188C91.3301 15.8125 91.1543 15.8906 90.9668 15.9531C90.5801 16.082 90.1777 16.1465 89.7598 16.1465C89.3418 16.1465 88.9492 16.0781 88.582 15.9414C88.2188 15.8008 87.9062 15.6055 87.6445 15.3555C87.1328 14.8633 86.8203 14.1875 86.707 13.3281C86.6797 13.1367 86.6348 13 86.5723 12.918C86.4551 12.7734 86.2617 12.6348 85.9922 12.502C86.332 12.3496 86.5488 12.1055 86.6426 11.7695C86.6699 11.6758 86.6914 11.582 86.707 11.4883C86.8047 10.8008 87.1523 10.2148 87.75 9.73047C88.3281 9.26172 88.9746 9.02734 89.6895 9.02734C90.4316 9.02734 91.0742 9.28906 91.6172 9.8125C92.1797 10.3516 92.4609 11.0137 92.4609 11.7988C92.4609 11.8262 92.459 11.8535 92.4551 11.8809C92.4551 11.9082 92.457 11.9336 92.4609 11.957C92.4688 12.0078 92.5 12.0371 92.5547 12.0449C92.625 12.1348 92.6602 12.2305 92.6602 12.332C92.6602 12.5664 92.5352 12.7051 92.2852 12.748C92.2227 12.7598 92.125 12.7754 91.9922 12.7949L88.6875 13.3223V13.8848C88.6875 14.3379 88.8242 14.6973 89.0977 14.9629C89.3555 15.2168 89.6816 15.3438 90.0762 15.3438C90.4941 15.3438 90.8301 15.2578 91.084 15.0859C91.3223 14.9219 91.4414 14.707 91.4414 14.4414C91.4414 14.3789 91.4316 14.3086 91.4121 14.2305ZM90.3867 12.3379V10.6973C90.3867 10.4395 90.3359 10.25 90.2344 10.1289C90.0547 9.92188 89.877 9.81836 89.7012 9.81836C89.5254 9.81836 89.3789 9.8457 89.2617 9.90039C89.1445 9.95117 89.043 10.0332 88.957 10.1465C88.7773 10.3848 88.6875 10.7559 88.6875 11.2598V12.6133L90.3867 12.3379ZM91.2539 12.1914V12.0098C91.2539 11.2832 91.1934 10.8438 91.0723 10.6914C91.0176 10.625 90.957 10.5762 90.8906 10.5449V12.25L91.2539 12.1914ZM87.7324 14.4473C87.7871 14.4043 87.8145 14.3555 87.8145 14.3008C87.8145 14.2148 87.7969 14.1055 87.7617 13.9727C87.6016 13.3594 87.5215 12.9336 87.5215 12.6953C87.5215 12.4531 87.5293 12.2656 87.5449 12.1328C87.5605 11.9961 87.582 11.8594 87.6094 11.7227C87.6562 11.457 87.707 11.2227 87.7617 11.0195C87.7969 10.8867 87.8145 10.7969 87.8145 10.75C87.8145 10.6562 87.7871 10.5879 87.7324 10.5449C87.5684 10.7402 87.4434 11.002 87.3574 11.3301C87.2715 11.6582 87.2012 11.9473 87.1465 12.1973C87.127 12.3027 87.0117 12.4043 86.8008 12.502C87.0117 12.5996 87.127 12.6973 87.1465 12.7949C87.291 13.4551 87.4102 13.875 87.5039 14.0547C87.5977 14.2344 87.6738 14.3652 87.7324 14.4473ZM98.4727 16.1172C98.2148 16.1172 97.9863 16.0547 97.7871 15.9297C97.5879 16.0547 97.4023 16.1172 97.2305 16.1172C97.0625 16.1172 96.9238 16.1016 96.8145 16.0703C96.7051 16.043 96.6094 16.0039 96.5273 15.9531C96.3594 15.8516 96.2754 15.7246 96.2754 15.5723C96.2754 15.4941 96.2969 15.4258 96.3398 15.3672C96.4258 15.4336 96.5352 15.4668 96.668 15.4668C97.0156 15.4668 97.2559 15.3184 97.3887 15.0215V12.1562C97.3887 11.9766 97.3516 11.8438 97.2773 11.7578C97.1602 11.6133 96.959 11.4707 96.6738 11.3301C96.9395 11.209 97.1113 11.1016 97.1895 11.0078C97.3223 10.8555 97.3887 10.6836 97.3887 10.4922V8.01953C97.2559 7.71875 97.0156 7.56836 96.668 7.56836C96.5352 7.56836 96.4258 7.60156 96.3398 7.66797C96.2969 7.60938 96.2754 7.54297 96.2754 7.46875C96.2754 7.39062 96.2969 7.31836 96.3398 7.25195C96.3867 7.18555 96.4492 7.12891 96.5273 7.08203C96.707 6.97266 96.9121 6.91797 97.1426 6.91797C97.377 6.91797 97.5918 6.98242 97.7871 7.11133C97.9902 6.98242 98.2051 6.91797 98.4316 6.91797C98.6621 6.91797 98.875 6.9668 99.0703 7.06445C99.5312 6.92773 99.959 6.85938 100.354 6.85938C100.748 6.85938 101.098 6.88086 101.402 6.92383C101.707 6.9668 101.998 7.04297 102.275 7.15234C102.553 7.25781 102.812 7.40039 103.055 7.58008C103.301 7.75977 103.52 7.98438 103.711 8.25391C104.117 8.82031 104.377 9.57031 104.49 10.5039C104.514 10.7344 104.562 10.8965 104.637 10.9902C104.762 11.1426 104.932 11.2559 105.146 11.3301C104.92 11.416 104.771 11.5039 104.701 11.5938C104.584 11.7422 104.514 11.9297 104.49 12.1562C104.361 13.4531 103.926 14.4531 103.184 15.1562C102.469 15.8359 101.541 16.1758 100.4 16.1758C99.9434 16.1758 99.5332 16.1055 99.1699 15.9648C98.9941 16.0664 98.7617 16.1172 98.4727 16.1172ZM99.5449 15.0801C99.7324 15.291 99.9805 15.3965 100.289 15.3965C100.602 15.3965 100.871 15.3359 101.098 15.2148C101.328 15.0898 101.521 14.8984 101.678 14.6406C101.994 14.1133 102.152 13.2852 102.152 12.1562C102.152 11.9102 102.113 11.7422 102.035 11.6523C101.93 11.5273 101.756 11.4199 101.514 11.3301C101.752 11.248 101.906 11.166 101.977 11.084C102.094 10.9434 102.152 10.7656 102.152 10.5508C102.152 10.332 102.137 10.1152 102.105 9.90039C102.074 9.68555 102.023 9.47266 101.953 9.26172C101.887 9.05078 101.801 8.84961 101.695 8.6582C101.594 8.46289 101.471 8.29102 101.326 8.14258C101.01 7.81836 100.637 7.65625 100.207 7.65625C100.074 7.65625 99.9453 7.66016 99.8203 7.66797C99.6953 7.67188 99.6035 7.70898 99.5449 7.7793V15.0801ZM102.457 8.67578C102.75 9.49219 102.896 10.1914 102.896 10.7734C102.896 10.9727 102.879 11.0898 102.844 11.125C102.812 11.1602 102.777 11.1914 102.738 11.2188C102.668 11.2656 102.592 11.3027 102.51 11.3301C102.744 11.4355 102.867 11.5371 102.879 11.6348C102.887 11.6777 102.891 11.7207 102.891 11.7637V11.9102C102.891 12.4375 102.836 12.9492 102.727 13.4453C102.617 13.9375 102.535 14.2715 102.48 14.4473C102.656 14.3965 102.783 14.2812 102.861 14.1016C102.943 13.918 103.012 13.7227 103.066 13.5156C103.125 13.3047 103.172 13.082 103.207 12.8477C103.285 12.3672 103.324 11.8652 103.324 11.3418C103.324 10.4043 103.186 9.64844 102.908 9.07422C102.787 8.84766 102.637 8.71484 102.457 8.67578ZM97.9512 14.4473C98.1465 14.373 98.2539 14.1172 98.2734 13.6797C98.2969 13.2422 98.3086 12.6367 98.3086 11.8633C98.3086 11.0898 98.3066 10.5762 98.3027 10.3223C98.3027 10.0645 98.3008 9.85742 98.2969 9.70117C98.2852 9.24023 98.2402 8.96289 98.1621 8.86914C98.0879 8.77148 98.0176 8.70703 97.9512 8.67578C97.9512 10.0352 97.9277 10.8086 97.8809 10.9961C97.8262 11.1523 97.6934 11.2637 97.4824 11.3301C97.7168 11.4121 97.8496 11.5117 97.8809 11.6289C97.9277 11.8164 97.9512 12.502 97.9512 13.6855V14.4473ZM107.789 16.1172C107.531 16.1172 107.303 16.0547 107.104 15.9297C106.904 16.0547 106.719 16.1172 106.547 16.1172C106.379 16.1172 106.24 16.1016 106.131 16.0703C106.021 16.043 105.926 16.0039 105.844 15.9531C105.676 15.8516 105.592 15.7246 105.592 15.5723C105.592 15.4941 105.613 15.4258 105.656 15.3672C105.742 15.4336 105.852 15.4668 105.984 15.4668C106.332 15.4668 106.572 15.3184 106.705 15.0215V12.1562C106.705 11.9805 106.668 11.8457 106.594 11.752C106.477 11.5996 106.275 11.4551 105.99 11.3184C106.252 11.1973 106.424 11.0918 106.506 11.002C106.639 10.8496 106.705 10.6797 106.705 10.4922V8.01953C106.572 7.71875 106.332 7.56836 105.984 7.56836C105.852 7.56836 105.742 7.60156 105.656 7.66797C105.613 7.60938 105.592 7.54297 105.592 7.46875C105.592 7.39062 105.613 7.31836 105.656 7.25195C105.703 7.18555 105.766 7.12891 105.844 7.08203C106.023 6.97266 106.229 6.91797 106.459 6.91797C106.693 6.91797 106.908 6.98242 107.104 7.11133C107.307 6.98242 107.533 6.91797 107.783 6.91797C108.057 6.91797 108.295 6.99023 108.498 7.13477C108.932 6.95117 109.363 6.85938 109.793 6.85938C110.223 6.85938 110.613 6.90234 110.965 6.98828C111.32 7.07031 111.641 7.1875 111.926 7.33984C112.547 7.66797 112.934 8.09375 113.086 8.61719C113.172 8.90625 113.357 9.12109 113.643 9.26172C113.326 9.48047 113.131 9.73047 113.057 10.0117C112.893 10.6289 112.561 11.0312 112.061 11.2188C112.795 11.4219 113.273 11.9023 113.496 12.6602C113.574 12.9297 113.76 13.1504 114.053 13.3223C113.752 13.4902 113.551 13.7441 113.449 14.084C113.348 14.4238 113.168 14.7305 112.91 15.0039C112.656 15.2734 112.359 15.4961 112.02 15.6719C111.363 16.0078 110.623 16.1758 109.799 16.1758C109.307 16.1758 108.867 16.0879 108.48 15.9121C108.277 16.0488 108.047 16.1172 107.789 16.1172ZM109.957 10.9375C110.301 10.9375 110.545 10.8555 110.689 10.6914C110.842 10.5234 110.918 10.2344 110.918 9.82422V8.4707C110.918 8.23242 110.793 8.03125 110.543 7.86719C110.324 7.72266 110.121 7.65039 109.934 7.65039C109.75 7.65039 109.598 7.67383 109.477 7.7207C109.359 7.76367 109.254 7.82422 109.16 7.90234C108.961 8.06641 108.861 8.26367 108.861 8.49414V10.9375H109.957ZM111.252 7.78516C111.385 8.08203 111.451 8.51562 111.451 9.08594C111.451 9.92578 111.396 10.4707 111.287 10.7207C111.451 10.6895 111.59 10.5312 111.703 10.2461C111.746 10.1406 111.777 10.0293 111.797 9.91211C111.82 9.79492 111.838 9.70508 111.85 9.64258C111.865 9.57617 111.887 9.51953 111.914 9.47266C111.973 9.375 112.078 9.30078 112.23 9.25C112.074 9.19922 111.977 9.14453 111.938 9.08594C111.887 9.01953 111.846 8.89844 111.814 8.72266C111.783 8.54688 111.746 8.4043 111.703 8.29492C111.66 8.18164 111.613 8.08984 111.562 8.01953C111.465 7.87891 111.361 7.80078 111.252 7.78516ZM107.268 14.4473C107.463 14.373 107.57 14.1172 107.59 13.6797C107.613 13.2422 107.625 12.6367 107.625 11.8633C107.625 11.0898 107.623 10.5762 107.619 10.3223C107.619 10.0645 107.617 9.85742 107.613 9.70117C107.602 9.24023 107.557 8.96289 107.479 8.86914C107.404 8.77148 107.334 8.70703 107.268 8.67578C107.268 10.0352 107.244 10.8086 107.197 10.9961C107.143 11.1523 107.01 11.2637 106.799 11.3301C107.033 11.4121 107.166 11.5117 107.197 11.6289C107.244 11.8164 107.268 12.502 107.268 13.6855V14.4473ZM108.861 14.4707C108.861 14.7441 108.965 14.9688 109.172 15.1445C109.371 15.3086 109.609 15.3906 109.887 15.3906C110.156 15.3906 110.383 15.332 110.566 15.2148C110.918 14.9844 111.094 14.7207 111.094 14.4238V12.707C111.094 12.3516 110.979 12.084 110.748 11.9043C110.553 11.752 110.297 11.6758 109.98 11.6758H108.861V14.4707ZM111.486 11.8574C111.58 12.0684 111.627 12.5566 111.627 13.3223C111.627 14.291 111.592 14.8594 111.521 15.0273C111.604 15.0117 111.688 14.9121 111.773 14.7285C111.859 14.5449 111.92 14.3555 111.955 14.1602C111.99 13.9648 112.014 13.832 112.025 13.7617C112.041 13.6914 112.062 13.6289 112.09 13.5742C112.152 13.457 112.258 13.373 112.406 13.3223C112.172 13.248 112.033 13.0996 111.99 12.877C111.951 12.6543 111.912 12.4824 111.873 12.3613C111.834 12.2402 111.793 12.1445 111.75 12.0742C111.676 11.9492 111.588 11.877 111.486 11.8574Z" fill="black"/>
</g>
<defs>
<filter id="filter0_d_1_6" x="0" y="0" width="118.053" height="27.82" filterUnits="userSpaceOnUse" color-interpolation-filters="sRGB">
<feFlood flood-opacity="0" result="BackgroundImageFix"/>
<feColorMatrix in="SourceAlpha" type="matrix" values="0 0 0 0 0 0 0 0 0 0 0 0 0 0 0 0 0 0 127 0" result="hardAlpha"/>
<feOffset dy="4"/>
<feGaussianBlur stdDeviation="2"/>
<feComposite in2="hardAlpha" operator="out"/>
<feColorMatrix type="matrix" values="0 0 0 0 0 0 0 0 0 0 0 0 0 0 0 0 0 0 0.25 0"/>
<feBlend mode="normal" in2="BackgroundImageFix" result="effect1_dropShadow_1_6"/>
<feBlend mode="normal" in="SourceGraphic" in2="effect1_dropShadow_1_6" result="shape"/>
</filter>
</defs>
</svg>
